# xmcd
#
# Track frame offsets:
#	150
#	16280
#	33997
#	53210
#	73430
#	91117
#	105322
#	122760
#	142327
#	159097
#	173420
#	189657
#	207200
#	226412
#	246590
#	264277
#	278505
#	295955
#	315500
#	332330
#
# Disc length: 4620 seconds
#
# Revision: 1
# Processed by: cddbd v1.5.2PL0 Copyright (c) Steve Scherf et al.
# Submitted via: EasyCDDAExtractor 15.2.0.1
#
DISCID=15120a14
DTITLE=Suellen Lima - O Amor Que Sonhei
DYEAR=2002
DGENRE=Gospel
TTITLE0=Chama Por Ele Agora
TTITLE1=Posse Da Bencao
TTITLE2=Chuva De Gloria
TTITLE3=Ele E Jesus
TTITLE4=Pare De Chorar
TTITLE5=Cachoeira De Poder
TTITLE6=O Amor Que Sonhei
TTITLE7=Pra Voce Vencer
TTITLE8=O Dono Da Festa
TTITLE9=Doutor Especialista
TTITLE10=Chama Por Ele Agora (Pb)
TTITLE11=Posse Da Bencao (Pb)
TTITLE12=Chuva De Gloria (Pb)
TTITLE13=Ele E Jesus (Pb)
TTITLE14=Pare De Chorar (Pb)
TTITLE15=Cachoeira De Poder (Pb)
TTITLE16=O Amor Que Sonhei (Pb)
TTITLE17=Pra Voce Vencer (Pb)
TTITLE18=O Dono Da Festa (Pb)
TTITLE19=Doutor Especialista (Pb)
EXTD=
EXTT0=
EXTT1=
EXTT2=
EXTT3=
EXTT4=
EXTT5=
EXTT6=
EXTT7=
EXTT8=
EXTT9=
EXTT10=
EXTT11=
EXTT12=
EXTT13=
EXTT14=
EXTT15=
EXTT16=
EXTT17=
EXTT18=
EXTT19=
PLAYORDER=
